Coordinates
version=1
nRows=14
nColumns=36
inDegrees=yes

Units are S.I. units (second, meters, Newtons, ...)
If the header above contains a line with 'inDegrees', this indicates whether rotational values are in degrees (yes) or radians (no).

endheader
time	pelvis_tilt	pelvis_list	pelvis_rotation	pelvis_tx	pelvis_ty	pelvis_tz	hip_flexion_r	hip_adduction_r	hip_rotation_r	knee_angle_r	knee_angle_r_beta	ankle_angle_r	subtalar_angle_r	mtp_angle_r	hip_flexion_l	hip_adduction_l	hip_rotation_l	knee_angle_l	knee_angle_l_beta	ankle_angle_l	subtalar_angle_l	mtp_angle_l	lumbar_extension	lumbar_bending	lumbar_rotation	arm_flex_r	arm_add_r	arm_rot_r	elbow_flex_r	pro_sup_r	arm_flex_l	arm_add_l	arm_rot_l	elbow_flex_l	pro_sup_l
      4.21666670	     22.12383532	     -0.73521407	      1.80907785	      0.04877081	      0.65324278	     -0.10062873	     47.91825313	     -3.20973935	      3.18664145	     84.61859110	      1.47687302	     11.79320076	    -23.98008091	     -7.49999987	     49.07154894	     -3.15109185	      5.48337453	     82.69031632	      1.44321828	     14.91905550	     -6.92449866	     -7.49999987	    -39.35108932	      0.99954078	     -3.03805451	     17.15188650	    -11.84359926	     24.11511683	     27.60754864	     80.64814502	     11.67429896	    -10.42856268	     10.72049380	     27.52619966	     65.72935425
      4.23333330	     22.14952904	     -0.69086392	      1.83197711	      0.04956795	      0.65330021	     -0.09999421	     47.88872564	     -3.24003935	      3.11033008	     84.64400462	      1.47731657	     11.53255900	    -24.04329704	     -7.49999987	     48.97431723	     -3.13930482	      5.48205886	     82.60503123	      1.44172977	     14.82830071	     -6.86968651	     -7.49999987	    -39.38283639	      0.95057000	     -3.16271980	     17.17701026	    -11.77043958	     24.24590965	     27.60687872	     80.44743139	     11.64859838	    -10.46925999	     10.95806938	     27.45114679	     65.53768408
      4.25000000	     22.20634317	     -0.70962337	      1.85577184	      0.04976555	      0.65304033	     -0.10077070	     47.84604522	     -3.23793013	      3.03520273	     84.69649954	      1.47823278	     11.53276145	    -24.02389344	     -7.49999987	     48.87359430	     -3.13132627	      5.56862318	     82.58302298	      1.44134566	     14.83298515	     -6.86760479	     -7.49999987	    -39.33748743	      0.91640429	     -3.19418124	     17.29576675	    -11.75547644	     24.61013857	     27.27363875	     80.66476735	     11.76366858	    -10.45107946	     11.36714447	     27.16902046	     65.48906978
      4.26666670	     22.29633515	     -0.73306404	      1.89282462	      0.04935810	      0.65340336	     -0.10032905	     47.67395848	     -3.21853784	      2.95441477	     84.59491153	      1.47645974	     11.40131900	    -24.34821878	     -7.49999987	     48.72094035	     -3.17035164	      5.60942644	     82.49005912	      1.43972313	     14.88000790	     -6.89287019	     -7.49999987	    -39.49881996	      0.94531223	     -3.20369705	     17.22914175	    -11.76720635	     24.71508615	     27.54479631	     79.73940011	     11.73287024	    -10.53605218	     11.52604900	     27.45391206	     65.08130451
      4.28333330	     22.11902180	     -0.74032432	      1.94580203	      0.05047286	      0.65325791	     -0.10005161	     47.85928064	     -3.27782280	      2.89630891	     84.70883228	      1.47844803	     12.08602888	    -23.84161003	     -7.49999987	     48.95255047	     -3.17824521	      5.63659032	     82.57492263	      1.44120428	     14.88337508	     -6.92549534	     -7.49999987	    -39.38887808	      0.92758316	     -3.15011125	     16.83744820	    -12.00131165	     24.59168260	     28.49549239	     79.16089928	     11.40953209	    -10.66767399	     11.48488259	     28.44294129	     64.90328617
      4.30000000	     22.13502523	     -0.74636997	      1.95057160	      0.05086437	      0.65323075	     -0.10158915	     47.79847162	     -3.30693429	      2.99580670	     84.74510578	      1.47908112	     12.13591517	    -23.72897903	     -7.49999987	     48.91673410	     -3.16739938	      5.59033505	     82.67050615	      1.44287253	     14.92780089	     -6.90866727	     -7.49999987	    -39.36665792	      0.95687381	     -3.17138313	     16.78043509	    -12.05363032	     24.61889982	     28.67285544	     78.95100076	     11.39879191	    -10.68994939	     11.52124303	     28.65300379	     64.82750459
      4.31666670	     22.30862123	     -0.75852385	      1.82226229	      0.05155629	      0.65417865	     -0.10190862	     47.49274130	     -3.26124510	      3.10407806	     84.60895115	      1.47670477	     12.02024836	    -23.60685974	     -7.49999987	     48.59142452	     -3.22960288	      5.54081227	     82.58696507	      1.44141446	     15.04159882	     -6.75374227	     -7.49999987	    -39.26784212	      1.01561964	     -3.17111454	     17.60165680	    -11.83715422	     26.29129139	     26.51783490	     80.32275368	     12.06991223	    -10.63931692	     13.12634800	     26.58987025	     64.74438731
      4.33333330	     22.50146682	     -0.74083265	      1.76632422	      0.05109094	      0.65430401	     -0.10172098	     47.22670626	     -3.26110799	      3.17764142	     84.55574641	      1.47577618	     12.02159845	    -23.70515325	     -7.49999987	     48.30634591	     -3.19933392	      5.54532887	     82.52088686	      1.44026118	     15.07668923	     -6.80377759	     -7.49999987	    -39.48614244	      1.01811936	     -3.16452550	     17.57465239	    -11.87036562	     26.31579404	     26.73678664	     79.67924797	     12.10311328	    -10.61612666	     13.18053330	     26.91781083	     64.41101903
      4.35000000	     22.35298130	     -0.72411513	      1.70366911	      0.05154511	      0.65369190	     -0.10124953	     47.41920954	     -3.27849803	      3.19192829	     84.65587726	      1.47752379	     12.07603929	    -23.79167069	     -7.49999987	     48.47402287	     -3.21193842	      5.54001652	     82.61272180	      1.44186400	     15.16508817	     -6.68765205	     -7.49999987	    -39.19541623	      1.01771903	     -3.09002862	     17.65026975	    -11.92589793	     26.89510018	     26.32428359	     80.13374679	     12.23013936	    -10.61672946	     13.81199653	     26.60520310	     64.07035074
      4.36666670	     22.17741848	     -0.71677198	      1.67607067	      0.05163294	      0.65324110	     -0.10125862	     47.67743221	     -3.24979470	      3.22958988	     84.76461178	      1.47942156	     12.47115213	    -23.48925517	     -7.49999987	     48.72554721	     -3.19928398	      5.56402159	     82.70675280	      1.44350515	     15.11676046	     -6.78626043	     -7.49999987	    -39.04478035	      0.94233702	     -3.06885506	     17.21448357	    -12.17635160	     26.65789291	     27.42729132	     79.08684538	     11.97349418	    -10.78652709	     13.66779071	     27.75002210	     63.77298048
      4.38333330	     22.40117194	     -0.73768297	      1.63951016	      0.05230510	      0.65301437	     -0.10076594	     47.44090288	     -3.09466388	      3.33407411	     84.77262022	      1.47956134	     12.09374206	    -24.05545942	     -7.49999987	     48.49686892	     -3.27020587	      5.61909074	     82.73959730	      1.44407839	     15.23541424	     -6.58380214	     -7.49999987	    -39.27610571	      0.94360524	     -3.09140220	     17.47893028	    -11.96737581	     26.63221801	     26.73654694	     79.10706206	     12.38628917	    -10.72349045	     13.64470815	     27.11774450	     63.64306106
      4.40000000	     22.31911746	     -0.73183098	      1.57829805	      0.05196720	      0.65423238	     -0.10170332	     47.49880327	     -3.05448760	      3.38651176	     84.71570451	      1.47856797	     12.12926412	    -24.05918753	     -7.49999987	     48.50271208	     -3.23382601	      5.57745747	     82.66446714	      1.44276713	     15.08205959	     -6.84343109	     -7.49999987	    -39.21524912	      0.90691066	     -3.08764542	     17.49168372	    -12.00221978	     26.73937613	     26.68125600	     78.65384543	     12.50006855	    -10.74320755	     13.71337628	     27.17679869	     63.41201769
      4.41666670	     22.16780458	     -0.74825764	      1.57566174	      0.05154241	      0.65353836	     -0.10047206	     47.70090353	     -3.01554431	      3.34274675	     84.74254923	      1.47903650	     12.20410410	    -24.01153750	     -7.49999987	     48.72585766	     -3.30146554	      5.57736969	     82.68974056	      1.44320823	     15.02434465	     -6.86915043	     -7.49999987	    -39.14673075	      0.85205971	     -3.06192092	     17.33563984	    -12.06233645	     26.72246980	     27.13201687	     78.28762028	     12.54204957	    -10.87607768	     13.69012761	     27.68676418	     63.31273466
      4.43333330	     22.15863068	     -0.82607309	      1.67050667	      0.04995949	      0.65328876	     -0.09840689	     47.75095521	     -2.91972729	      3.14559500	     84.71452201	      1.47854733	     12.30759111	    -23.95155342	     -7.49999987	     48.81239812	     -3.42321040	      5.64641245	     82.60801993	      1.44178194	     15.03408409	     -6.88689370	     -7.49999987	    -39.24820839	      0.88937857	     -3.03250401	     17.54749245	    -12.00472313	     27.16069367	     26.61586559	     78.70845231	     12.91007324	    -10.97525501	     14.00172777	     27.46200480	     63.34091530
